<svg width="800" height="800" viewBox="0 0 800 800" fill="none" xmlns="http://www.w3.org/2000/svg">
<rect width="800" height="800" fill="#EEEEEE"/>
<path d="M569.011 543.94C563.273 543.94 558.187 541.598 553.753 536.916C549.32 532.233 547.103 524.948 547.103 515.062C547.103 501.533 549.841 489.436 555.318 478.769C560.796 468.103 568.229 458.477 577.618 449.891C584.139 443.907 592.485 437.533 602.657 430.769C612.828 424.005 625.087 416.851 639.432 409.306C656.124 400.72 669.556 392.005 679.728 383.159C689.9 374.054 697.333 364.428 702.028 354.281C706.722 344.135 709.07 332.688 709.07 319.94C709.07 308.233 705.81 298.216 699.289 289.891C693.03 281.566 684.292 275.322 673.077 271.159C662.123 266.737 649.473 264.525 635.128 264.525C622.87 264.525 612.437 266.086 603.83 269.208C595.223 272.33 588.572 275.972 583.878 280.135C579.183 284.038 576.836 287.29 576.836 289.891C576.836 291.452 578.27 293.403 581.139 295.745C584.008 297.826 588.964 300.948 596.006 305.111C603.048 308.753 608.134 312.655 611.264 316.818C614.654 320.72 616.349 325.273 616.349 330.477C616.349 336.2 614.524 341.013 610.872 344.916C607.482 348.558 603.178 351.29 597.962 353.111C593.006 354.672 587.66 355.452 581.922 355.452C576.445 355.452 570.967 354.542 565.49 352.72C560.013 350.899 555.449 348.038 551.797 344.135C548.407 339.972 546.711 334.379 546.711 327.355C546.711 319.29 548.798 311.224 552.971 303.159C557.405 294.834 564.056 287.159 572.923 280.135C581.791 272.851 593.006 266.997 606.569 262.574C620.392 258.151 636.432 255.94 654.689 255.94C686.509 255.94 711.156 262.054 728.631 274.281C746.106 286.509 754.843 303.42 754.843 325.013C754.843 339.322 751.583 352.2 745.062 363.647C738.803 374.834 729.022 385.241 715.721 394.867C702.419 404.233 685.205 413.208 664.079 421.794C640.866 430.899 621.566 439.485 606.178 447.55C591.05 455.615 579.313 463.55 570.967 471.355C562.882 478.899 557.666 486.834 555.318 495.159L560.404 497.501C564.056 494.379 568.49 491.907 573.706 490.086C578.922 488.265 584.66 486.964 590.92 486.184C597.44 485.403 604.091 485.143 610.872 485.403C617.914 485.403 624.826 485.794 631.607 486.574C640.997 488.135 650.125 490.216 658.993 492.818C667.861 495.42 676.207 498.151 684.031 501.013C691.856 503.875 698.768 506.216 704.766 508.038C711.026 509.859 715.981 510.769 719.633 510.769C732.152 510.769 741.411 505.826 747.41 495.94C753.669 486.054 756.799 470.314 756.799 448.72H760.711C760.711 466.411 759.147 481.371 756.017 493.598C753.148 505.566 748.844 515.322 743.106 522.867C737.368 530.151 730.326 535.485 721.98 538.867C713.634 542.249 703.984 543.94 693.03 543.94C686.509 543.94 678.945 543.029 670.338 541.208C661.732 539.387 652.473 536.785 642.561 533.403C632.65 530.021 622.348 526.379 611.655 522.477C602.005 518.834 593.267 515.582 585.443 512.72C577.879 509.859 571.619 507.647 566.664 506.086C561.708 504.265 558.318 503.355 556.492 503.355C554.406 503.355 553.362 504.005 553.362 505.306C553.362 507.127 554.536 508.818 556.883 510.379C559.231 511.94 562.36 513.761 566.273 515.842C571.75 518.444 575.923 521.046 578.792 523.647C581.922 525.989 583.487 528.981 583.487 532.623C583.487 535.745 582.182 538.346 579.574 540.428C577.227 542.769 573.706 543.94 569.011 543.94Z" fill="#333333"/>
<path d="M315.907 543.94C310.196 543.94 305.134 541.598 300.721 536.916C296.307 532.233 294.101 524.948 294.101 515.062C294.101 501.533 296.827 489.436 302.278 478.769C307.73 468.103 315.128 458.477 324.474 449.891C330.964 443.907 339.271 437.533 349.395 430.769C359.519 424.005 371.721 416.851 385.998 409.306C402.613 400.72 415.982 392.005 426.106 383.159C436.231 374.054 443.629 364.428 448.302 354.281C452.975 344.135 455.311 332.688 455.311 319.94C455.311 308.233 452.066 298.216 445.576 289.891C439.346 281.566 430.649 275.322 419.487 271.159C408.583 266.737 395.993 264.525 381.715 264.525C369.514 264.525 359.13 266.086 350.563 269.208C341.997 272.33 335.377 275.972 330.704 280.135C326.031 284.038 323.695 287.29 323.695 289.891C323.695 291.452 325.123 293.403 327.978 295.745C330.834 297.826 335.766 300.948 342.775 305.111C349.785 308.753 354.847 312.655 357.962 316.818C361.337 320.72 363.024 325.273 363.024 330.477C363.024 336.2 361.207 341.013 357.572 344.916C354.198 348.558 349.914 351.29 344.722 353.111C339.79 354.672 334.468 355.452 328.757 355.452C323.306 355.452 317.854 354.542 312.402 352.72C306.951 350.899 302.408 348.038 298.774 344.135C295.399 339.972 293.711 334.379 293.711 327.355C293.711 319.29 295.788 311.224 299.942 303.159C304.355 294.834 310.975 287.159 319.801 280.135C328.627 272.851 339.79 266.997 353.289 262.574C367.048 258.151 383.013 255.94 401.185 255.94C432.856 255.94 457.388 262.054 474.781 274.281C492.174 286.509 500.87 303.42 500.87 325.013C500.87 339.322 497.626 352.2 491.136 363.647C484.905 374.834 475.17 385.241 461.931 394.867C448.691 404.233 431.558 413.208 410.53 421.794C387.426 430.899 368.216 439.485 352.9 447.55C337.843 455.615 326.161 463.55 317.854 471.355C309.806 478.899 304.615 486.834 302.278 495.159L307.34 497.501C310.975 494.379 315.388 491.907 320.58 490.086C325.772 488.265 331.483 486.964 337.713 486.184C344.203 485.403 350.823 485.143 357.572 485.403C364.582 485.403 371.461 485.794 378.211 486.574C387.556 488.135 396.642 490.216 405.468 492.818C414.295 495.42 422.602 498.151 430.39 501.013C438.178 503.875 445.057 506.216 451.028 508.038C457.258 509.859 462.19 510.769 465.825 510.769C478.285 510.769 487.501 505.826 493.472 495.94C499.702 486.054 502.817 470.314 502.817 448.72H506.711C506.711 466.411 505.154 481.371 502.039 493.598C499.183 505.566 494.9 515.322 489.189 522.867C483.477 530.151 476.468 535.485 468.161 538.867C459.854 542.249 450.249 543.94 439.346 543.94C432.856 543.94 425.328 543.029 416.761 541.208C408.194 539.387 398.978 536.785 389.114 533.403C379.249 530.021 368.995 526.379 358.351 522.477C348.746 518.834 340.05 515.582 332.262 512.72C324.733 509.859 318.503 507.647 313.571 506.086C308.638 504.265 305.264 503.355 303.446 503.355C301.37 503.355 300.331 504.005 300.331 505.306C300.331 507.127 301.499 508.818 303.836 510.379C306.172 511.94 309.287 513.761 313.181 515.842C318.633 518.444 322.786 521.046 325.642 523.647C328.757 525.989 330.315 528.981 330.315 532.623C330.315 535.745 329.017 538.346 326.421 540.428C324.084 542.769 320.58 543.94 315.907 543.94Z" fill="#333333"/>
<path d="M61.907 543.94C56.1959 543.94 51.1337 541.598 46.7206 536.916C42.3074 532.233 40.1008 524.948 40.1008 515.062C40.1008 501.533 42.8266 489.436 48.2782 478.769C53.7297 468.103 61.1282 458.477 70.4738 449.891C76.9637 443.907 85.2708 437.533 95.3952 430.769C105.519 424.005 117.721 416.851 131.998 409.306C148.613 400.72 161.982 392.005 172.106 383.159C182.231 374.054 189.629 364.428 194.302 354.281C198.975 344.135 201.311 332.688 201.311 319.94C201.311 308.233 198.066 298.216 191.576 289.891C185.346 281.566 176.649 275.322 165.487 271.159C154.583 266.737 141.993 264.525 127.715 264.525C115.514 264.525 105.13 266.086 96.5633 269.208C87.9966 272.33 81.3769 275.972 76.7041 280.135C72.0314 284.038 69.695 287.29 69.695 289.891C69.695 291.452 71.1228 293.403 73.9783 295.745C76.8339 297.826 81.7663 300.948 88.7754 305.111C95.7846 308.753 100.847 312.655 103.962 316.818C107.337 320.72 109.024 325.273 109.024 330.477C109.024 336.2 107.207 341.013 103.572 344.916C100.198 348.558 95.9143 351.29 90.7224 353.111C85.79 354.672 80.4683 355.452 74.7571 355.452C69.3056 355.452 63.854 354.542 58.4025 352.72C52.9509 350.899 48.408 348.038 44.7736 344.135C41.3988 339.972 39.7114 334.379 39.7114 327.355C39.7114 319.29 41.7882 311.224 45.9418 303.159C50.3549 294.834 56.9747 287.159 65.801 280.135C74.6273 272.851 85.79 266.997 99.2891 262.574C113.048 258.151 129.013 255.94 147.185 255.94C178.856 255.94 203.388 262.054 220.781 274.281C238.174 286.509 246.87 303.42 246.87 325.013C246.87 339.322 243.625 352.2 237.136 363.647C230.905 374.834 221.17 385.241 207.931 394.867C194.691 404.233 177.558 413.208 156.53 421.794C133.426 430.899 114.216 439.485 98.8997 447.55C83.8431 455.615 72.1612 463.55 63.854 471.355C55.8065 478.899 50.6145 486.834 48.2782 495.159L53.3403 497.501C56.9747 494.379 61.3878 491.907 66.5798 490.086C71.7718 488.265 77.4829 486.964 83.7133 486.184C90.2032 485.403 96.8229 485.143 103.572 485.403C110.582 485.403 117.461 485.794 124.211 486.574C133.556 488.135 142.642 490.216 151.468 492.818C160.295 495.42 168.602 498.151 176.39 501.013C184.178 503.875 191.057 506.216 197.028 508.038C203.258 509.859 208.19 510.769 211.825 510.769C224.285 510.769 233.501 505.826 239.472 495.94C245.702 486.054 248.817 470.314 248.817 448.72H252.711C252.711 466.411 251.154 481.371 248.039 493.598C245.183 505.566 240.9 515.322 235.189 522.867C229.477 530.151 222.468 535.485 214.161 538.867C205.854 542.249 196.249 543.94 185.346 543.94C178.856 543.94 171.328 543.029 162.761 541.208C154.194 539.387 144.978 536.785 135.114 533.403C125.249 530.021 114.995 526.379 104.351 522.477C94.7462 518.834 86.0496 515.582 78.2617 512.72C70.7334 509.859 64.503 507.647 59.5707 506.086C54.6383 504.265 51.2635 503.355 49.4463 503.355C47.3696 503.355 46.3312 504.005 46.3312 505.306C46.3312 507.127 47.4994 508.818 49.8357 510.379C52.1721 511.94 55.2873 513.761 59.1813 515.842C64.6328 518.444 68.7864 521.046 71.642 523.647C74.7571 525.989 76.3147 528.981 76.3147 532.623C76.3147 535.745 75.0167 538.346 72.4207 540.428C70.0844 542.769 66.5798 543.94 61.907 543.94Z" fill="#333333"/>
</svg>
