<svg width="1200" height="300" viewBox="0 0 1200 300" fill="none" xmlns="http://www.w3.org/2000/svg">
<path d="M1089.57 242.6C1081.94 242.6 1074.84 241.907 1068.25 240.52C1061.84 239.134 1056.2 237.14 1051.35 234.54C1046.67 231.94 1042.94 228.82 1040.17 225.18C1037.57 221.54 1036.27 217.467 1036.27 212.96C1036.27 210.187 1037.05 207.847 1038.61 205.94C1040.17 204.034 1042.08 202.56 1044.33 201.52C1046.76 200.48 1049.27 199.96 1051.87 199.96C1054.47 199.96 1056.9 200.394 1059.15 201.26C1061.58 202.127 1063.48 203.34 1064.87 204.9C1066.43 206.46 1067.21 208.454 1067.21 210.88C1067.21 213.134 1066.6 215.127 1065.39 216.86C1064.18 218.594 1062.44 219.98 1060.19 221.02C1057.07 222.58 1054.9 223.88 1053.69 224.92C1052.48 225.96 1051.87 227.087 1051.87 228.3C1051.87 229.86 1053.52 231.507 1056.81 233.24C1060.28 234.8 1064.87 236.187 1070.59 237.4C1076.31 238.44 1082.55 238.96 1089.31 238.96C1098.67 238.96 1106.64 237.747 1113.23 235.32C1119.99 232.894 1125.19 229.427 1128.83 224.92C1132.64 220.24 1134.55 214.607 1134.55 208.02C1134.55 203.167 1133.08 198.92 1130.13 195.28C1127.18 191.467 1122.33 188 1115.57 184.88C1108.81 181.587 1099.45 178.38 1087.49 175.26C1075.36 171.62 1065.65 167.98 1058.37 164.34C1051.26 160.527 1046.15 156.454 1043.03 152.12C1040.08 147.614 1038.61 142.76 1038.61 137.56C1038.61 127.507 1043.29 119.534 1052.65 113.64C1062.18 107.747 1075.27 104.8 1091.91 104.8C1100.75 104.8 1108.81 106.1 1116.09 108.7C1123.37 111.3 1129.26 114.854 1133.77 119.36C1138.28 123.867 1140.53 129.24 1140.53 135.48C1140.53 138.08 1139.75 140.247 1138.19 141.98C1136.8 143.714 1134.9 145.014 1132.47 145.88C1130.22 146.747 1127.79 147.18 1125.19 147.18C1123.28 147.18 1121.38 146.92 1119.47 146.4C1117.74 145.88 1116.09 145.187 1114.53 144.32C1113.14 143.454 1111.93 142.327 1110.89 140.94C1110.02 139.38 1109.59 137.734 1109.59 136C1109.59 131.494 1112.36 127.94 1117.91 125.34C1120.68 123.954 1122.59 122.827 1123.63 121.96C1124.67 120.92 1125.19 119.88 1125.19 118.84C1125.19 117.627 1124.24 116.414 1122.33 115.2C1120.42 113.987 1117.82 112.86 1114.53 111.82C1111.41 110.78 1107.94 110 1104.13 109.48C1100.32 108.787 1096.42 108.44 1092.43 108.44C1082.9 108.44 1074.75 109.567 1067.99 111.82C1061.23 113.9 1055.94 116.934 1052.13 120.92C1048.49 124.907 1046.67 129.587 1046.67 134.96C1046.67 139.467 1048.14 143.714 1051.09 147.7C1054.04 151.687 1058.8 155.327 1065.39 158.62C1071.98 161.914 1080.73 165.12 1091.65 168.24C1104.48 171.88 1114.62 175.52 1122.07 179.16C1129.7 182.627 1135.07 186.44 1138.19 190.6C1141.48 194.76 1143.13 199.614 1143.13 205.16C1143.13 211.227 1141.83 216.6 1139.23 221.28C1136.63 225.787 1132.99 229.687 1128.31 232.98C1123.8 236.1 1118.26 238.44 1111.67 240C1105.08 241.734 1097.72 242.6 1089.57 242.6Z" fill="#333333"/>
<path d="M892.65 242.6V55.92H874.97V53.06L903.05 45V144.84L905.13 146.92C906.69 143.28 908.943 139.12 911.89 134.44C915.01 129.587 918.823 124.907 923.33 120.4C927.837 115.893 933.037 112.167 938.93 109.22C944.997 106.273 951.67 104.8 958.95 104.8C967.097 104.8 974.377 106.36 980.79 109.48C987.203 112.6 992.577 117.107 996.91 123C1001.42 128.893 1004.8 136 1007.05 144.32C1009.3 152.467 1010.43 161.653 1010.43 171.88C1010.43 183.32 1009.04 193.46 1006.27 202.3C1003.5 210.967 999.51 218.333 994.31 224.4C989.11 230.467 982.87 235.06 975.59 238.18C968.31 241.127 960.163 242.6 951.15 242.6C946.47 242.6 941.79 241.993 937.11 240.78C932.43 239.567 927.923 237.833 923.59 235.58C919.257 233.327 915.183 230.553 911.37 227.26C907.557 223.793 904.09 219.807 900.97 215.3H898.37L895.25 242.6H892.65ZM950.89 238.7C960.943 238.7 969.61 236.1 976.89 230.9C984.343 225.527 989.977 217.9 993.79 208.02C997.777 198.14 999.77 186.44 999.77 172.92C999.77 159.747 998.123 148.567 994.83 139.38C991.537 130.193 986.597 123.173 980.01 118.32C973.423 113.293 965.363 110.78 955.83 110.78C948.55 110.78 941.443 112.86 934.51 117.02C927.75 121.18 921.597 127.16 916.05 134.96C910.503 142.587 906.17 151.773 903.05 162.52V192.42C903.05 199.7 904.61 206.2 907.73 211.92C910.85 217.64 914.837 222.493 919.69 226.48C924.543 230.467 929.743 233.5 935.29 235.58C940.837 237.66 946.037 238.7 950.89 238.7Z" fill="#333333"/>
<path d="M787.714 104.8C796.901 104.8 804.701 106.1 811.114 108.7C817.701 111.127 823.074 115.027 827.234 120.4C831.394 125.6 834.428 132.274 836.334 140.42C838.241 148.394 839.194 157.84 839.194 168.76V229.34C839.194 232.46 839.887 234.714 841.274 236.1C842.834 237.487 844.654 238.18 846.734 238.18C849.508 238.18 852.454 237.487 855.574 236.1C858.868 234.714 861.988 232.894 864.934 230.64V233.5C862.854 235.407 860.601 237.054 858.174 238.44C855.748 239.827 853.234 240.867 850.634 241.56C848.208 242.254 845.781 242.6 843.354 242.6C838.501 242.6 834.861 241.127 832.434 238.18C830.008 235.234 828.794 230.727 828.794 224.66C828.794 219.46 828.794 215.734 828.794 213.48C828.794 211.054 828.794 209.234 828.794 208.02C828.794 206.807 828.794 205.507 828.794 204.12L826.194 202.56C822.901 208.974 818.741 214.694 813.714 219.72C808.688 224.574 803.054 228.734 796.814 232.2C790.748 235.667 784.508 238.267 778.094 240C771.681 241.734 765.441 242.6 759.374 242.6C753.134 242.6 747.414 241.647 742.214 239.74C737.014 237.834 732.768 234.8 729.474 230.64C726.354 226.48 724.794 221.194 724.794 214.78C724.794 200.047 733.461 188.954 750.794 181.5C768.128 173.874 794.128 170.06 828.794 170.06C828.794 155.674 827.321 144.06 824.374 135.22C821.601 126.207 817.008 119.62 810.594 115.46C804.354 111.127 795.861 108.96 785.114 108.96C777.661 108.96 770.988 109.654 765.094 111.04C759.201 112.427 754.608 114.074 751.314 115.98C748.021 117.714 746.374 119.36 746.374 120.92C746.374 121.614 746.981 122.394 748.194 123.26C749.408 124.127 751.661 125.254 754.954 126.64C760.154 129.067 762.754 132.534 762.754 137.04C762.754 140.68 761.108 143.54 757.814 145.62C754.694 147.527 750.967 148.48 746.634 148.48C742.647 148.48 739.008 147.527 735.714 145.62C732.421 143.54 730.774 140.42 730.774 136.26C730.774 132.447 732.334 128.72 735.454 125.08C738.574 121.44 742.821 118.06 748.194 114.94C753.568 111.82 759.634 109.394 766.394 107.66C773.327 105.754 780.434 104.8 787.714 104.8ZM828.794 173.7C807.821 173.7 790.314 175.26 776.274 178.38C762.234 181.5 751.748 186.094 744.814 192.16C737.881 198.054 734.414 205.42 734.414 214.26C734.414 219.634 735.714 223.967 738.314 227.26C740.914 230.554 744.294 232.98 748.454 234.54C752.787 235.927 757.554 236.62 762.754 236.62C768.648 236.62 774.801 235.667 781.214 233.76C787.801 231.854 794.128 228.994 800.194 225.18C806.434 221.194 812.068 216.34 817.094 210.62C822.121 204.9 826.021 198.227 828.794 190.6V173.7Z" fill="#333333"/>
<path d="M571.465 238.7V236.1L589.145 233.5V59.8201L571.465 57.2201V54.6201H617.485V57.2201L600.065 59.8201V234.8H671.045C674.511 234.8 677.371 233.847 679.625 231.94C682.051 230.033 683.958 227.087 685.345 223.1C686.731 218.94 687.598 213.48 687.945 206.72V173.7H691.845L698.345 238.7H571.465Z" fill="#333333"/>
<path d="M409.023 242.6C405.21 242.6 401.83 241.04 398.883 237.92C395.936 234.8 394.463 229.947 394.463 223.36C394.463 214.347 396.283 206.287 399.923 199.18C403.563 192.074 408.503 185.66 414.743 179.94C419.076 175.954 424.623 171.707 431.383 167.2C438.143 162.694 446.29 157.927 455.823 152.9C466.916 147.18 475.843 141.374 482.603 135.48C489.363 129.414 494.303 123 497.423 116.24C500.543 109.48 502.103 101.854 502.103 93.3602C502.103 85.5602 499.936 78.8869 495.603 73.3402C491.443 67.7936 485.636 63.6336 478.183 60.8602C470.903 57.9136 462.496 56.4402 452.963 56.4402C444.816 56.4402 437.883 57.4802 432.163 59.5602C426.443 61.6402 422.023 64.0669 418.903 66.8402C415.783 69.4402 414.223 71.6069 414.223 73.3402C414.223 74.3802 415.176 75.6802 417.083 77.2402C418.99 78.6269 422.283 80.7069 426.963 83.4802C431.643 85.9069 435.023 88.5069 437.103 91.2802C439.356 93.8802 440.483 96.9136 440.483 100.38C440.483 104.194 439.27 107.4 436.843 110C434.59 112.427 431.73 114.247 428.263 115.46C424.97 116.5 421.416 117.02 417.603 117.02C413.963 117.02 410.323 116.414 406.683 115.2C403.043 113.987 400.01 112.08 397.583 109.48C395.33 106.707 394.203 102.98 394.203 98.3002C394.203 92.9269 395.59 87.5536 398.363 82.1802C401.31 76.6336 405.73 71.5202 411.623 66.8402C417.516 61.9869 424.97 58.0869 433.983 55.1402C443.17 52.1935 453.83 50.7202 465.963 50.7202C487.11 50.7202 503.49 54.7935 515.103 62.9402C526.716 71.0869 532.523 82.3536 532.523 96.7402C532.523 106.274 530.356 114.854 526.023 122.48C521.863 129.934 515.363 136.867 506.523 143.28C497.683 149.52 486.243 155.5 472.203 161.22C456.776 167.287 443.95 173.007 433.723 178.38C423.67 183.754 415.87 189.04 410.323 194.24C404.95 199.267 401.483 204.554 399.923 210.1L403.303 211.66C405.73 209.58 408.676 207.934 412.143 206.72C415.61 205.507 419.423 204.64 423.583 204.12C427.916 203.6 432.336 203.427 436.843 203.6C441.523 203.6 446.116 203.86 450.623 204.38C456.863 205.42 462.93 206.807 468.823 208.54C474.716 210.274 480.263 212.094 485.463 214C490.663 215.907 495.256 217.467 499.243 218.68C503.403 219.894 506.696 220.5 509.123 220.5C517.443 220.5 523.596 217.207 527.583 210.62C531.743 204.034 533.823 193.547 533.823 179.16H536.423C536.423 190.947 535.383 200.914 533.303 209.06C531.396 217.034 528.536 223.534 524.723 228.56C520.91 233.414 516.23 236.967 510.683 239.22C505.136 241.474 498.723 242.6 491.443 242.6C487.11 242.6 482.083 241.994 476.363 240.78C470.643 239.567 464.49 237.834 457.903 235.58C451.316 233.327 444.47 230.9 437.363 228.3C430.95 225.874 425.143 223.707 419.943 221.8C414.916 219.894 410.756 218.42 407.463 217.38C404.17 216.167 401.916 215.56 400.703 215.56C399.316 215.56 398.623 215.994 398.623 216.86C398.623 218.074 399.403 219.2 400.963 220.24C402.523 221.28 404.603 222.494 407.203 223.88C410.843 225.614 413.616 227.347 415.523 229.08C417.603 230.64 418.643 232.634 418.643 235.06C418.643 237.14 417.776 238.874 416.043 240.26C414.483 241.82 412.143 242.6 409.023 242.6Z" fill="#333333"/>
<path d="M239.922 242.6C236.108 242.6 232.728 241.04 229.782 237.92C226.835 234.8 225.362 229.947 225.362 223.36C225.362 214.347 227.182 206.287 230.822 199.18C234.462 192.074 239.402 185.66 245.642 179.94C249.975 175.954 255.522 171.707 262.282 167.2C269.042 162.694 277.188 157.927 286.722 152.9C297.815 147.18 306.742 141.374 313.502 135.48C320.262 129.414 325.202 123 328.322 116.24C331.442 109.48 333.002 101.854 333.002 93.3602C333.002 85.5602 330.835 78.8869 326.502 73.3402C322.342 67.7936 316.535 63.6336 309.082 60.8602C301.802 57.9136 293.395 56.4402 283.862 56.4402C275.715 56.4402 268.782 57.4802 263.062 59.5602C257.342 61.6402 252.922 64.0669 249.802 66.8402C246.682 69.4402 245.122 71.6069 245.122 73.3402C245.122 74.3802 246.075 75.6802 247.982 77.2402C249.888 78.6269 253.182 80.7069 257.862 83.4802C262.542 85.9069 265.922 88.5069 268.002 91.2802C270.255 93.8802 271.382 96.9136 271.382 100.38C271.382 104.194 270.168 107.4 267.742 110C265.488 112.427 262.628 114.247 259.162 115.46C255.868 116.5 252.315 117.02 248.502 117.02C244.862 117.02 241.222 116.414 237.582 115.2C233.942 113.987 230.908 112.08 228.482 109.48C226.228 106.707 225.102 102.98 225.102 98.3002C225.102 92.9269 226.488 87.5536 229.262 82.1802C232.208 76.6336 236.628 71.5202 242.522 66.8402C248.415 61.9869 255.868 58.0869 264.882 55.1402C274.068 52.1935 284.728 50.7202 296.862 50.7202C318.008 50.7202 334.388 54.7935 346.002 62.9402C357.615 71.0869 363.422 82.3536 363.422 96.7402C363.422 106.274 361.255 114.854 356.922 122.48C352.762 129.934 346.262 136.867 337.422 143.28C328.582 149.52 317.142 155.5 303.102 161.22C287.675 167.287 274.848 173.007 264.622 178.38C254.568 183.754 246.768 189.04 241.222 194.24C235.848 199.267 232.382 204.554 230.822 210.1L234.202 211.66C236.628 209.58 239.575 207.934 243.042 206.72C246.508 205.507 250.322 204.64 254.482 204.12C258.815 203.6 263.235 203.427 267.742 203.6C272.422 203.6 277.015 203.86 281.522 204.38C287.762 205.42 293.828 206.807 299.722 208.54C305.615 210.274 311.162 212.094 316.362 214C321.562 215.907 326.155 217.467 330.142 218.68C334.302 219.894 337.595 220.5 340.022 220.5C348.342 220.5 354.495 217.207 358.482 210.62C362.642 204.034 364.722 193.547 364.722 179.16H367.322C367.322 190.947 366.282 200.914 364.202 209.06C362.295 217.034 359.435 223.534 355.622 228.56C351.808 233.414 347.128 236.967 341.582 239.22C336.035 241.474 329.622 242.6 322.342 242.6C318.008 242.6 312.982 241.994 307.262 240.78C301.542 239.567 295.388 237.834 288.802 235.58C282.215 233.327 275.368 230.9 268.262 228.3C261.848 225.874 256.042 223.707 250.842 221.8C245.815 219.894 241.655 218.42 238.362 217.38C235.068 216.167 232.815 215.56 231.602 215.56C230.215 215.56 229.522 215.994 229.522 216.86C229.522 218.074 230.302 219.2 231.862 220.24C233.422 221.28 235.502 222.494 238.102 223.88C241.742 225.614 244.515 227.347 246.422 229.08C248.502 230.64 249.542 232.634 249.542 235.06C249.542 237.14 248.675 238.874 246.942 240.26C245.382 241.82 243.042 242.6 239.922 242.6Z" fill="#333333"/>
<path d="M70.82 242.6C67.0067 242.6 63.6267 241.04 60.68 237.92C57.7333 234.8 56.26 229.947 56.26 223.36C56.26 214.347 58.08 206.287 61.72 199.18C65.36 192.074 70.3 185.66 76.54 179.94C80.8733 175.954 86.42 171.707 93.18 167.2C99.94 162.694 108.087 157.927 117.62 152.9C128.713 147.18 137.64 141.374 144.4 135.48C151.16 129.414 156.1 123 159.22 116.24C162.34 109.48 163.9 101.854 163.9 93.3602C163.9 85.5602 161.733 78.8869 157.4 73.3402C153.24 67.7936 147.433 63.6336 139.98 60.8602C132.7 57.9136 124.293 56.4402 114.76 56.4402C106.613 56.4402 99.68 57.4802 93.96 59.5602C88.24 61.6402 83.82 64.0669 80.7 66.8402C77.58 69.4402 76.02 71.6069 76.02 73.3402C76.02 74.3802 76.9733 75.6802 78.88 77.2402C80.7867 78.6269 84.08 80.7069 88.76 83.4802C93.44 85.9069 96.82 88.5069 98.9 91.2802C101.153 93.8802 102.28 96.9136 102.28 100.38C102.28 104.194 101.067 107.4 98.64 110C96.3867 112.427 93.5267 114.247 90.06 115.46C86.7667 116.5 83.2133 117.02 79.4 117.02C75.76 117.02 72.12 116.414 68.48 115.2C64.84 113.987 61.8067 112.08 59.38 109.48C57.1267 106.707 56 102.98 56 98.3002C56 92.9269 57.3867 87.5536 60.16 82.1802C63.1067 76.6336 67.5267 71.5202 73.42 66.8402C79.3133 61.9869 86.7667 58.0869 95.78 55.1402C104.967 52.1935 115.627 50.7202 127.76 50.7202C148.907 50.7202 165.287 54.7935 176.9 62.9402C188.513 71.0869 194.32 82.3536 194.32 96.7402C194.32 106.274 192.153 114.854 187.82 122.48C183.66 129.934 177.16 136.867 168.32 143.28C159.48 149.52 148.04 155.5 134 161.22C118.573 167.287 105.747 173.007 95.52 178.38C85.4667 183.754 77.6667 189.04 72.12 194.24C66.7467 199.267 63.28 204.554 61.72 210.1L65.1 211.66C67.5267 209.58 70.4733 207.934 73.94 206.72C77.4067 205.507 81.22 204.64 85.38 204.12C89.7133 203.6 94.1333 203.427 98.64 203.6C103.32 203.6 107.913 203.86 112.42 204.38C118.66 205.42 124.727 206.807 130.62 208.54C136.513 210.274 142.06 212.094 147.26 214C152.46 215.907 157.053 217.467 161.04 218.68C165.2 219.894 168.493 220.5 170.92 220.5C179.24 220.5 185.393 217.207 189.38 210.62C193.54 204.034 195.62 193.547 195.62 179.16H198.22C198.22 190.947 197.18 200.914 195.1 209.06C193.193 217.034 190.333 223.534 186.52 228.56C182.707 233.414 178.027 236.967 172.48 239.22C166.933 241.474 160.52 242.6 153.24 242.6C148.907 242.6 143.88 241.994 138.16 240.78C132.44 239.567 126.287 237.834 119.7 235.58C113.113 233.327 106.267 230.9 99.16 228.3C92.7467 225.874 86.94 223.707 81.74 221.8C76.7133 219.894 72.5533 218.42 69.26 217.38C65.9667 216.167 63.7133 215.56 62.5 215.56C61.1133 215.56 60.42 215.994 60.42 216.86C60.42 218.074 61.2 219.2 62.76 220.24C64.32 221.28 66.4 222.494 69 223.88C72.64 225.614 75.4133 227.347 77.32 229.08C79.4 230.64 80.44 232.634 80.44 235.06C80.44 237.14 79.5733 238.874 77.84 240.26C76.28 241.82 73.94 242.6 70.82 242.6Z" fill="#333333"/>
</svg>
